<svg width="19" height="22" viewBox="0 0 19 22" fill="none" xmlns="http://www.w3.org/2000/svg">
<path d="M11.75 10H5.75M7.75 14H5.75M13.75 6H5.75M17.75 5.8V16.2C17.75 17.8802 17.75 18.7202 17.423 19.362C17.1354 19.9265 16.6765 20.3854 16.112 20.673C15.4702 21 14.6302 21 12.95 21H6.55C4.86984 21 4.02976 21 3.38803 20.673C2.82354 20.3854 2.3646 19.9265 2.07698 19.362C1.75 18.7202 1.75 17.8802 1.75 16.2V5.8C1.75 4.11984 1.75 3.27976 2.07698 2.63803C2.3646 2.07354 2.82354 1.6146 3.38803 1.32698C4.02976 1 4.86984 1 6.55 1H12.95C14.6302 1 15.4702 1 16.112 1.32698C16.6765 1.6146 17.1354 2.07354 17.423 2.63803C17.75 3.27976 17.75 4.11984 17.75 5.8Z" stroke="#141718" stroke-width="2" stroke-linecap="round" stroke-linejoin="round"/>
</svg>
